<mxfile host="app.diagrams.net" modified="2022-09-11T07:35:36.264Z" agent="5.0 (Macintosh; Intel Mac OS X 10_15_7) AppleWebKit/537.36 (KHTML, like Gecko) Chrome/105.0.0.0 Safari/537.36" etag="TY8preVbeTXjOjn3UU5e" version="20.2.8" type="github">
  <diagram id="xzcYbQN_TdziRFI63hPa" name="第 1 页">
    <mxGraphModel dx="1426" dy="794" grid="1" gridSize="10" guides="1" tooltips="1" connect="1" arrows="1" fold="1" page="1" pageScale="1" pageWidth="827" pageHeight="1169" math="0" shadow="0">
      <root>
        <mxCell id="0" />
        <mxCell id="1" parent="0" />
        <mxCell id="EMw3bPcYY5zAMKp4gVgv-1" value="" style="endArrow=none;dashed=1;html=1;dashPattern=1 3;strokeWidth=2;rounded=0;" edge="1" parent="1">
          <mxGeometry width="50" height="50" relative="1" as="geometry">
            <mxPoint x="120" y="250" as="sourcePoint" />
            <mxPoint x="810" y="250" as="targetPoint" />
          </mxGeometry>
        </mxCell>
        <mxCell id="EMw3bPcYY5zAMKp4gVgv-3" value="&lt;font style=&quot;font-size: 20px;&quot;&gt;前端&lt;/font&gt;" style="rounded=1;whiteSpace=wrap;html=1;direction=south;" vertex="1" parent="1">
          <mxGeometry x="10" y="90" width="90" height="70" as="geometry" />
        </mxCell>
        <mxCell id="EMw3bPcYY5zAMKp4gVgv-5" value="" style="rounded=1;whiteSpace=wrap;html=1;" vertex="1" parent="1">
          <mxGeometry x="160" y="10" width="590" height="210" as="geometry" />
        </mxCell>
        <mxCell id="EMw3bPcYY5zAMKp4gVgv-6" value="Web" style="text;strokeColor=none;fillColor=none;align=left;verticalAlign=middle;spacingLeft=4;spacingRight=4;overflow=hidden;points=[[0,0.5],[1,0.5]];portConstraint=eastwest;rotatable=0;fontSize=20;" vertex="1" parent="1">
          <mxGeometry x="170" y="20" width="80" height="30" as="geometry" />
        </mxCell>
        <mxCell id="EMw3bPcYY5zAMKp4gVgv-7" value="&lt;font style=&quot;font-size: 15px;&quot;&gt;react&lt;/font&gt;" style="rounded=1;whiteSpace=wrap;html=1;fontSize=15;" vertex="1" parent="1">
          <mxGeometry x="200" y="70" width="80" height="50" as="geometry" />
        </mxCell>
        <mxCell id="EMw3bPcYY5zAMKp4gVgv-8" value="axios" style="rounded=1;whiteSpace=wrap;html=1;fontSize=15;" vertex="1" parent="1">
          <mxGeometry x="200" y="140" width="80" height="50" as="geometry" />
        </mxCell>
        <mxCell id="EMw3bPcYY5zAMKp4gVgv-9" value="antd" style="rounded=1;whiteSpace=wrap;html=1;fontSize=15;" vertex="1" parent="1">
          <mxGeometry x="320" y="70" width="90" height="50" as="geometry" />
        </mxCell>
        <mxCell id="EMw3bPcYY5zAMKp4gVgv-11" value="" style="rounded=1;whiteSpace=wrap;html=1;" vertex="1" parent="1">
          <mxGeometry x="162" y="275" width="586" height="100" as="geometry" />
        </mxCell>
        <mxCell id="EMw3bPcYY5zAMKp4gVgv-13" value="API Gateway" style="text;html=1;strokeColor=none;fillColor=none;align=center;verticalAlign=middle;whiteSpace=wrap;rounded=0;fontSize=20;" vertex="1" parent="1">
          <mxGeometry x="152" y="280" width="176" height="30" as="geometry" />
        </mxCell>
        <mxCell id="EMw3bPcYY5zAMKp4gVgv-14" value="Nginx" style="rounded=1;whiteSpace=wrap;html=1;fontSize=15;" vertex="1" parent="1">
          <mxGeometry x="380" y="300" width="120" height="60" as="geometry" />
        </mxCell>
        <mxCell id="EMw3bPcYY5zAMKp4gVgv-15" value="网关" style="rounded=1;whiteSpace=wrap;html=1;fontSize=15;" vertex="1" parent="1">
          <mxGeometry x="10" y="290" width="100" height="70" as="geometry" />
        </mxCell>
      </root>
    </mxGraphModel>
  </diagram>
</mxfile>
